<?xml version="1.0" encoding="UTF-8"?>
<svg width="360px" height="145px" viewBox="0 0 360 145" version="1.1" xmlns="http://www.w3.org/2000/svg" xmlns:xlink="http://www.w3.org/1999/xlink">
    <!-- Generator: Sketch 50.2 (55047) - http://www.bohemiancoding.com/sketch -->
    <title>nurui</title>
    <desc>Created with Sketch.</desc>
    <defs>
        <path d="M94.8692316,144.5 C91.3047954,144.479412 88.5874313,142.942961 87.6791,141.0792 C87.3800689,140.340008 87.1964182,139.489954 87.1943,138.569434 L87.1943,138.537227 C87.2025249,134.961591 89.9516393,130.333589 99.2981,127.0082 C114.666643,121.210273 167.613058,109.695836 237.391896,109.6889 L237.518058,109.6889 C264.491574,109.691582 293.976972,111.41434 324.777,115.8512 C326.825,115.9942 328.416,117.7782 328.288,119.6082 C328.149,121.6052 326.944,123.9292 324.226,123.7392 C236.681,112.4332 146.192,123.5982 100.559,143.3182 C98.5921728,144.138149 96.7101073,144.490234 95.0144136,144.5 L94.8692287,144.5 L94.8692316,144.5 Z" id="path-1"></path>
    </defs>
    <g id="Page-1" stroke="none" stroke-width="1" fill="none" fill-rule="evenodd">
        <g id="nurui">
            <path d="M164.527,77.6543 C157.081,89.6606 146.67,90.8449 139.897,86.8111 C133.493,82.9973 131.124,76.7021 131.397,68.7076 C131.493,65.87 132.137,63.2079 132.545,58.38 C130.157,62.9205 127.228,68.5941 125.969,71.363 C117.72,89.4991 105.013,88.9901 97.108,85.1532 C92.5387,82.9355 86.6095,75.3606 86.6864,70.5353 C83.476,73.9392 78.3217,81.2863 72.2238,83.7076 C63.6989,87.0927 56.0541,83.0766 53.2334,80.8075 C47.1401,75.9079 45.8871,68.7579 46.3714,61.4759 C47.155,49.697 51.2012,40.029 50.2,40.21 C47.3351,40.728 45.22,43.627 44.065,45.18 C37.2022,54.4039 31.8578,64.4921 27.1306,74.8764 C25.1398,79.2483 23.3655,83.4701 21.794,88.0222 C19.745,93.957 14.9871,97.7903 8.0083,95.0822 C3.0212,93.1465 0.3929,90.8932 0.3534,85.9424 C0.3067,80.0808 1.5773,74.702 2.8209,69.1646 C4.5809,61.3327 6.2479,53.479 7.9036,45.626 C9.0936,39.983 11.6757,30.05 11.03,22.742 C10.8846,21.096 11.2175,20.469 12.5317,19.844 C15.4538,18.456 23.5547,17.54 29.1384,19.419 C31.0991,20.079 32.5251,21.398 32.5303,23.493 C32.5372,26.976 32.4347,30.474 32.0985,33.941 C31.0378,44.881 28.7902,50.519 26.8309,60.336 C31.5362,52.4353 36.3914,45.502 42.6809,38.653 C46.5225,34.47 50.8965,31.689 56.4792,30.63 C62.7079,29.449 68.928,34.121 68.9004,40.721 C68.876,47.012 67.8069,53.2921 67.3319,59.5868 C66.9792,64.2465 66.6591,68.9233 66.6751,73.5906 C66.6857,76.705 69.1347,77.8919 72.0716,76.3166 C73.6413,75.476 77.3212,73.5882 81.8333,66.8537 C84.9879,62.1452 86.7738,57.4322 88.3349,52.2913 C90.599,44.84 93.1647,37.477 95.6195,30.083 C96.7836,26.581 101.127,23.177 104.929,23.037 C107.289,22.952 109.709,23.055 112.024,23.482 C115.604,24.141 117.32,26.065 117.183,29.681 C117.076,32.514 116.32,35.344 115.643,38.125 C114.175,44.161 112.418,50.133 111.077,56.1932 C110.035,60.9019 105.33,75.1685 110.738,77.5507 C113.831,78.9126 117.655,74.4466 120.132,69.9166 C125.262,60.5375 137.764,31.577 139.258,27.982 C141.78,21.91 150.64,17.898 156.731,20.537 C158.816,21.44 159.483,23.215 158.518,25.356 C153.66,36.129 147.748,70.6836 149.309,77.9359 C149.471,78.688 150.772,85.2277 157.887,76.6781 C163.388,70.0685 167.913,63.3241 171.257,55.0795 C176.543,42.049 179.284,24.939 179.943,17.464 C180.014,16.656 180.209,14.849 182.368,14.341 C186.059,13.472 191.367,13.336 196.52,14.549 C199.937,15.353 201.451,17.004 201.454,20.519 C201.458,23.838 200.834,27.156 200.504,30.476 C200.308,32.441 199.61,36.34 199.433,38.306 C199.639,38.342 211.037,22.673 220.528,19.569 C223.607,18.562 227.077,18.212 229.89,19.184 C233.241,20.342 232.269,23.656 230.479,24.025 C226.147,24.918 222.334,26.808 218.65,29.189 C196.598,43.444 190.325,83.6518 189.866,87.9858 C189.178,94.4693 183.395,100.3547 176.966,98.9812 C169.516,97.3891 167.298,92.9742 167.547,86.7025 C167.79,80.5936 169.145,72.4792 170.371,68.9869 L164.527,77.6543 Z" id="Fill-1" fill="#1C1F3D"></path>
            <path d="M308.29,66.479 L299.911,79.5567 C292.867,91.8032 282.502,93.3324 275.598,89.5258 C269.071,85.9266 266.495,79.7135 266.502,71.7144 C266.504,68.8752 267.06,66.1936 267.307,61.3549 C265.071,65.9721 262.332,71.7398 261.166,74.5485 C253.524,92.9484 240.806,92.8616 232.778,89.2897 C228.138,87.2249 224.473,81.406 223.736,73.9275 C222.328,59.6463 227.254,41.771 229.462,34.299 C230.509,30.76 234.738,27.214 238.533,26.948 C240.889,26.785 243.311,26.807 245.639,27.157 C249.238,27.697 251.017,29.563 251,33.182 C250.988,36.016 250.326,38.87 249.742,41.672 C248.475,47.753 246.917,53.7796 245.778,59.8815 C244.893,64.6226 240.664,79.0376 246.148,81.2385 C249.285,82.4973 252.958,77.9064 255.284,73.2967 C260.099,63.7529 271.634,34.394 273.007,30.751 C275.326,24.598 281.506,19.838 290.223,22.73 C292.381,23.445 293.063,25.315 292.169,27.487 C287.672,38.415 282.91,73.1469 284.71,80.3434 C284.898,81.0897 286.416,87.5821 293.243,78.8015 C297.608,73.1868 309.53,55.72 311.503,43.317 C312.712,35.708 312.698,34.975 313.756,31.199 C314.009,30.299 315.931,28.158 317.737,28.264 C320.638,28.436 325.5,28.462 328.321,29.139 C330.268,29.607 331.271,31.154 330.97,33.283 C330.882,33.897 325.783,73.0235 325.36,79.0831 C324.841,86.5114 325.745,91.3817 329.483,88.971 C335.141,85.3216 343.04,72.7691 352.28,45.81 C352.977,43.777 353.898,41.909 356.112,41.008 C358.016,40.234 359.554,41.183 359.387,43.197 C359.3,44.262 358.953,45.335 358.559,46.343 C355.787,53.4623 348.141,73.3657 343.281,81.6445 C339.411,88.2383 336.811,92.6569 329.862,96.0106 C328.117,96.8532 318.23,99.583 311.011,91.9468 C308.746,89.5502 307.573,82.7996 307.668,77.5849 C307.725,74.434 307.657,72.5687 308.29,66.479 Z" id="Fill-2" fill="#1C1F3D"></path>
            <path d="M317.736,2.558 C321.312,-1.077 334.067,-1.333 335.706,5.056 C336.474,8.051 335.655,11.409 335.187,13.299 C334.279,16.962 330.973,18.797 323.821,17.793 C318.866,17.098 314.842,13.933 315.771,9.137 C316.178,7.04 315.826,4.499 317.736,2.558 Z" id="Fill-3" fill="#1C1F3D"></path>
            <mask id="mask-2" fill="white">
                <use xlink:href="#path-1"></use>
            </mask>
            <use id="Clip-5" fill="#161B3D" xlink:href="#path-1"></use>
        </g>
    </g>
</svg>